<svg width="250" height="173" viewBox="0 0 250 173" fill="none" xmlns="http://www.w3.org/2000/svg">
<g clip-path="url(#clip0_12_10)">
<path d="M225.465 0H24.4738C10.9573 0 0 10.9399 0 24.435V148.565C0 162.06 10.9573 173 24.4738 173H225.465C238.982 173 249.939 162.06 249.939 148.565V24.435C249.939 10.9399 238.982 0 225.465 0Z" fill="#69D7F2"/>
<path d="M36.7109 36.6523H56.3512V43.6163L67.915 36.6523H77.4598L85.5362 48.3812L104.993 36.6523H114.171L130.14 60.11V136.347H110.499V63.4087L104.626 54.6121H97.4672L93.429 59.1937V85.5835H73.7888V63.4087L67.915 54.6121H60.3894L56.3512 59.1937V136.347H36.7109V36.6523Z" fill="#00070D"/>
<path d="M213.228 136.348H154.613V118.144H213.228V136.348Z" fill="#00070D"/>
</g>
<defs>
<clipPath id="clip0_12_10">
<rect width="250" height="173" fill="white"/>
</clipPath>
</defs>
</svg>
